# xmcd
#
# Track frame offsets:
#	150
#	17637
#	34165
#	50020
#	72777
#	92572
#	109980
#	129365
#	147255
#	164755
#
# Disc length: 2463 seconds
#
# Revision: 1
# Processed by: cddbd v1.5PL3 Copyright (c) Steve Scherf et al.
# Submitted via: CDex 1.50Beta5
#
DISCID=8a099d0a
DTITLE=中原めいこ - ココナッツ・ハウス
DYEAR=1900
DGENRE=Pop
TTITLE0=今夜だけ Dance・Dance・Dance
TTITLE1=Sunset Freeway
TTITLE2=バカンス
TTITLE3=涙のスロー・ダンス
TTITLE4=恋はサンバにのせて・・・
TTITLE5=タイムリミット
TTITLE6=GEMINI
TTITLE7=ほんのちょっぴり Old man
TTITLE8=City Night
TTITLE9=Come back to me
EXTD=
EXTT0=
EXTT1=
EXTT2=
EXTT3=
EXTT4=
EXTT5=
EXTT6=
EXTT7=
EXTT8=
EXTT9=
PLAYORDER=
